<svg xmlns="http://www.w3.org/2000/svg" viewBox="0 0 24 24" width="36" height="36" color="#ffffff" fill="none">
    <defs></defs>
    <path fill="currentColor" d="M3.25,12 C3.25,11.586 3.586,11.25 4,11.25 L20,11.25 C20.414,11.25 20.75,11.586 20.75,12 C20.75,12.414 20.414,12.75 20,12.75 L4,12.75 C3.586,12.75 3.25,12.414 3.25,12 Z M9.25,5 C9.25,4.586 9.586,4.25 10,4.25 L20,4.25 C20.414,4.25 20.75,4.586 20.75,5 C20.75,5.414 20.414,5.75 20,5.75 L10,5.75 C9.586,5.75 9.25,5.414 9.25,5 Z M4,18.25 L14,18.25 C14.414,18.25 14.75,18.586 14.75,19 C14.75,19.414 14.414,19.75 14,19.75 L4,19.75 C3.586,19.75 3.25,19.414 3.25,19 C3.25,18.586 3.586,18.25 4,18.25 Z"></path>
</svg>